<svg width="404" height="134" viewBox="0 0 404 134" fill="none" xmlns="http://www.w3.org/2000/svg">
<rect y="5" width="120" height="120" rx="8" fill="#22C55E"/>
<path d="M37.528 97V29.8H62.2C67.576 29.8 71.992 30.728 75.448 32.584C78.968 34.376 81.592 36.84 83.32 39.976C85.048 43.048 85.912 46.472 85.912 50.248C85.912 54.344 84.824 58.088 82.648 61.48C80.536 64.872 77.208 67.336 72.664 68.872L86.584 97H72.472L59.992 70.504H49.816V97H37.528ZM49.816 61.48H61.432C65.528 61.48 68.536 60.488 70.456 58.504C72.376 56.52 73.336 53.896 73.336 50.632C73.336 47.432 72.376 44.872 70.456 42.952C68.6 41.032 65.56 40.072 61.336 40.072H49.816V61.48Z" fill="white"/>
<path d="M139.432 95V47.384H148.552L149.416 56.408C151.08 53.272 153.384 50.808 156.328 49.016C159.336 47.16 162.952 46.232 167.176 46.232V56.888H164.392C161.576 56.888 159.048 57.368 156.808 58.328C154.632 59.224 152.872 60.792 151.528 63.032C150.248 65.208 149.608 68.248 149.608 72.152V95H139.432ZM192.029 96.152C187.997 96.152 184.669 95.48 182.045 94.136C179.421 92.792 177.469 91.032 176.189 88.856C174.909 86.616 174.269 84.184 174.269 81.56C174.269 76.952 176.061 73.304 179.645 70.616C183.229 67.928 188.349 66.584 195.005 66.584H207.485V65.72C207.485 62.008 206.461 59.224 204.413 57.368C202.429 55.512 199.837 54.584 196.637 54.584C193.821 54.584 191.357 55.288 189.245 56.696C187.197 58.04 185.949 60.056 185.501 62.744H175.325C175.645 59.288 176.797 56.344 178.781 53.912C180.829 51.416 183.389 49.528 186.461 48.248C189.597 46.904 193.021 46.232 196.733 46.232C203.389 46.232 208.541 47.992 212.189 51.512C215.837 54.968 217.661 59.704 217.661 65.72V95H208.829L207.965 86.84C206.621 89.464 204.669 91.672 202.109 93.464C199.549 95.256 196.189 96.152 192.029 96.152ZM194.045 87.896C196.797 87.896 199.101 87.256 200.957 85.976C202.877 84.632 204.349 82.872 205.373 80.696C206.461 78.52 207.133 76.12 207.389 73.496H196.061C192.029 73.496 189.149 74.2 187.421 75.608C185.757 77.016 184.925 78.776 184.925 80.888C184.925 83.064 185.725 84.792 187.325 86.072C188.989 87.288 191.229 87.896 194.045 87.896ZM248.556 95C243.884 95 240.172 93.88 237.42 91.64C234.668 89.336 233.292 85.272 233.292 79.448V55.928H225.132V47.384H233.292L234.54 35.288H243.468V47.384H256.908V55.928H243.468V79.448C243.468 82.072 244.012 83.896 245.1 84.92C246.252 85.88 248.204 86.36 250.956 86.36H256.428V95H248.556ZM273.161 38.36C271.241 38.36 269.641 37.784 268.361 36.632C267.145 35.416 266.537 33.912 266.537 32.12C266.537 30.328 267.145 28.856 268.361 27.704C269.641 26.488 271.241 25.88 273.161 25.88C275.081 25.88 276.649 26.488 277.865 27.704C279.145 28.856 279.785 30.328 279.785 32.12C279.785 33.912 279.145 35.416 277.865 36.632C276.649 37.784 275.081 38.36 273.161 38.36ZM268.073 95V47.384H278.249V95H268.073ZM318.466 96.152C314.754 96.152 311.458 95.416 308.578 93.944C305.762 92.472 303.522 90.392 301.858 87.704L300.802 95H291.682V25.88H301.858V54.776C303.394 52.536 305.506 50.552 308.194 48.824C310.882 47.096 314.338 46.232 318.562 46.232C323.17 46.232 327.234 47.32 330.754 49.496C334.274 51.672 337.026 54.648 339.01 58.424C341.058 62.2 342.082 66.488 342.082 71.288C342.082 76.088 341.058 80.376 339.01 84.152C337.026 87.864 334.274 90.808 330.754 92.984C327.234 95.096 323.138 96.152 318.466 96.152ZM316.738 87.32C321.09 87.32 324.674 85.848 327.49 82.904C330.306 79.896 331.714 75.992 331.714 71.192C331.714 68.056 331.074 65.272 329.794 62.84C328.514 60.408 326.754 58.52 324.514 57.176C322.274 55.768 319.682 55.064 316.738 55.064C312.386 55.064 308.802 56.568 305.986 59.576C303.234 62.584 301.858 66.456 301.858 71.192C301.858 75.992 303.234 79.896 305.986 82.904C308.802 85.848 312.386 87.32 316.738 87.32ZM370.656 96.152C364.896 96.152 360.352 94.36 357.024 90.776C353.76 87.192 352.128 81.848 352.128 74.744V47.384H362.304V73.688C362.304 82.904 366.08 87.512 373.632 87.512C377.408 87.512 380.512 86.168 382.944 83.48C385.376 80.792 386.592 76.952 386.592 71.96V47.384H396.768V95H387.744L386.976 86.648C385.504 89.592 383.328 91.928 380.448 93.656C377.632 95.32 374.368 96.152 370.656 96.152Z" fill="white"/>
<path d="M134.704 126V109.2H140.584C141.896 109.2 142.984 109.424 143.848 109.872C144.712 110.304 145.352 110.904 145.768 111.672C146.2 112.424 146.416 113.28 146.416 114.24C146.416 115.152 146.208 115.992 145.792 116.76C145.392 117.512 144.76 118.112 143.896 118.56C143.032 119.008 141.928 119.232 140.584 119.232H137.248V126H134.704ZM137.248 117.144H140.464C141.664 117.144 142.52 116.888 143.032 116.376C143.56 115.848 143.824 115.136 143.824 114.24C143.824 113.312 143.56 112.592 143.032 112.08C142.52 111.552 141.664 111.288 140.464 111.288H137.248V117.144ZM148.835 126V108.72H151.379V126H148.835ZM158.632 126.288C157.624 126.288 156.792 126.12 156.136 125.784C155.48 125.448 154.992 125.008 154.672 124.464C154.352 123.904 154.192 123.296 154.192 122.64C154.192 121.488 154.64 120.576 155.536 119.904C156.432 119.232 157.712 118.896 159.376 118.896H162.496V118.68C162.496 117.752 162.24 117.056 161.728 116.592C161.232 116.128 160.584 115.896 159.784 115.896C159.08 115.896 158.464 116.072 157.936 116.424C157.424 116.76 157.112 117.264 157 117.936H154.456C154.536 117.072 154.824 116.336 155.32 115.728C155.832 115.104 156.472 114.632 157.24 114.312C158.024 113.976 158.88 113.808 159.808 113.808C161.472 113.808 162.76 114.248 163.672 115.128C164.584 115.992 165.04 117.176 165.04 118.68V126H162.832L162.616 123.96C162.28 124.616 161.792 125.168 161.152 125.616C160.512 126.064 159.672 126.288 158.632 126.288ZM159.136 124.224C159.824 124.224 160.4 124.064 160.864 123.744C161.344 123.408 161.712 122.968 161.968 122.424C162.24 121.88 162.408 121.28 162.472 120.624H159.64C158.632 120.624 157.912 120.8 157.48 121.152C157.064 121.504 156.856 121.944 156.856 122.472C156.856 123.016 157.056 123.448 157.456 123.768C157.872 124.072 158.432 124.224 159.136 124.224ZM168.006 126V114.096H170.262L170.454 116.184C170.822 115.448 171.358 114.872 172.062 114.456C172.782 114.024 173.606 113.808 174.534 113.808C175.974 113.808 177.102 114.256 177.918 115.152C178.75 116.048 179.166 117.384 179.166 119.16V126H176.646V119.424C176.646 117.12 175.702 115.968 173.814 115.968C172.87 115.968 172.086 116.304 171.462 116.976C170.854 117.648 170.55 118.608 170.55 119.856V126H168.006ZM189.602 131.28L192.458 125.016H191.762L187.058 114.096H189.818L193.466 122.904L197.282 114.096H199.97L192.29 131.28H189.602ZM206.551 126.288C205.415 126.288 204.391 126.032 203.479 125.52C202.583 124.992 201.871 124.264 201.343 123.336C200.815 122.392 200.551 121.296 200.551 120.048C200.551 118.8 200.815 117.712 201.343 116.784C201.887 115.84 202.615 115.112 203.527 114.6C204.439 114.072 205.455 113.808 206.575 113.808C207.711 113.808 208.727 114.072 209.623 114.6C210.535 115.112 211.255 115.84 211.783 116.784C212.327 117.712 212.599 118.8 212.599 120.048C212.599 121.296 212.327 122.392 211.783 123.336C211.255 124.264 210.535 124.992 209.623 125.52C208.711 126.032 207.687 126.288 206.551 126.288ZM206.551 124.104C207.159 124.104 207.719 123.952 208.231 123.648C208.759 123.344 209.183 122.896 209.503 122.304C209.823 121.696 209.983 120.944 209.983 120.048C209.983 119.152 209.823 118.408 209.503 117.816C209.199 117.208 208.783 116.752 208.255 116.448C207.743 116.144 207.183 115.992 206.575 115.992C205.967 115.992 205.399 116.144 204.871 116.448C204.359 116.752 203.943 117.208 203.623 117.816C203.303 118.408 203.143 119.152 203.143 120.048C203.143 120.944 203.303 121.696 203.623 122.304C203.943 122.896 204.359 123.344 204.871 123.648C205.383 123.952 205.943 124.104 206.551 124.104ZM219.742 126.288C218.302 126.288 217.166 125.84 216.334 124.944C215.518 124.048 215.11 122.712 215.11 120.936V114.096H217.654V120.672C217.654 122.976 218.598 124.128 220.486 124.128C221.43 124.128 222.206 123.792 222.814 123.12C223.422 122.448 223.726 121.488 223.726 120.24V114.096H226.27V126H224.014L223.822 123.912C223.454 124.648 222.91 125.232 222.19 125.664C221.486 126.08 220.67 126.288 219.742 126.288ZM229.506 126V114.096H231.786L232.002 116.352C232.418 115.568 232.994 114.952 233.73 114.504C234.482 114.04 235.386 113.808 236.442 113.808V116.472H235.746C235.042 116.472 234.41 116.592 233.85 116.832C233.306 117.056 232.866 117.448 232.53 118.008C232.21 118.552 232.05 119.312 232.05 120.288V126H229.506ZM250.095 126.288C248.943 126.288 247.927 126.016 247.047 125.472C246.167 124.928 245.479 124.184 244.983 123.24C244.487 122.296 244.239 121.224 244.239 120.024C244.239 118.824 244.487 117.76 244.983 116.832C245.479 115.888 246.167 115.152 247.047 114.624C247.943 114.08 248.967 113.808 250.118 113.808C251.063 113.808 251.887 113.992 252.591 114.36C253.311 114.728 253.871 115.248 254.271 115.92V108.72H256.815V126H254.535L254.271 124.152C253.887 124.712 253.359 125.208 252.687 125.64C252.015 126.072 251.151 126.288 250.095 126.288ZM250.551 124.08C251.639 124.08 252.527 123.704 253.215 122.952C253.919 122.2 254.271 121.232 254.271 120.048C254.271 118.848 253.919 117.88 253.215 117.144C252.527 116.392 251.639 116.016 250.551 116.016C249.463 116.016 248.567 116.392 247.863 117.144C247.159 117.88 246.807 118.848 246.807 120.048C246.807 120.832 246.967 121.528 247.287 122.136C247.607 122.744 248.047 123.224 248.607 123.576C249.183 123.912 249.831 124.08 250.551 124.08ZM264.054 126.288C263.046 126.288 262.214 126.12 261.558 125.784C260.902 125.448 260.414 125.008 260.094 124.464C259.774 123.904 259.614 123.296 259.614 122.64C259.614 121.488 260.062 120.576 260.958 119.904C261.854 119.232 263.134 118.896 264.798 118.896H267.918V118.68C267.918 117.752 267.662 117.056 267.15 116.592C266.654 116.128 266.006 115.896 265.206 115.896C264.502 115.896 263.886 116.072 263.358 116.424C262.846 116.76 262.534 117.264 262.422 117.936H259.878C259.958 117.072 260.246 116.336 260.742 115.728C261.254 115.104 261.894 114.632 262.662 114.312C263.446 113.976 264.302 113.808 265.23 113.808C266.894 113.808 268.182 114.248 269.094 115.128C270.006 115.992 270.462 117.176 270.462 118.68V126H268.254L268.038 123.96C267.702 124.616 267.214 125.168 266.574 125.616C265.934 126.064 265.094 126.288 264.054 126.288ZM264.558 124.224C265.246 124.224 265.822 124.064 266.286 123.744C266.766 123.408 267.134 122.968 267.39 122.424C267.662 121.88 267.83 121.28 267.894 120.624H265.062C264.054 120.624 263.334 120.8 262.902 121.152C262.486 121.504 262.278 121.944 262.278 122.472C262.278 123.016 262.478 123.448 262.878 123.768C263.294 124.072 263.854 124.224 264.558 124.224ZM274.445 131.28L277.301 125.016H276.605L271.901 114.096H274.661L278.309 122.904L282.125 114.096H284.813L277.133 131.28H274.445Z" fill="#FFFEFE"/>
</svg>
